# Blender v2.77 (sub 0) OBJ File: 'stone.blend'
# www.blender.org
mtllib stone.mtl
o Cube
v 1.000000 -2.000000 -1.000000
v 1.000000 -2.000000 1.000000
v -1.000000 -2.000000 1.000000
v -1.000000 -2.000000 -1.000000
v 1.000000 0.000000 -0.999999
v 0.999999 0.000000 1.000001
v -1.000000 0.000000 1.000000
v -1.000000 0.000000 -1.000000
v 1.000000 -0.036256 -1.000000
v 1.000000 -0.036256 1.000000
v -1.000000 -0.036256 1.000000
v -1.000000 -0.036256 -1.000000
vt 0.6032 0.3347
vt 0.6032 0.3542
vt 0.5837 0.3542
vt 0.5837 0.3347
vt 0.6088 0.4056
vt 0.6012 0.4056
vt 0.6012 0.3904
vt 0.6088 0.3904
vt 0.5860 0.3980
vt 0.5860 0.3904
vt 0.6012 0.3904
vt 0.6012 0.3980
vt 0.6088 0.4207
vt 0.6012 0.4207
vt 0.6012 0.4056
vt 0.6088 0.4056
vt 0.0207 0.5908
vt 0.0282 0.5908
vt 0.0282 0.6060
vt 0.0207 0.6060
vt 0.5860 0.4056
vt 0.5936 0.4056
vt 0.5936 0.4207
vt 0.5860 0.4207
vt 0.0434 0.6060
vt 0.0358 0.6060
vt 0.0358 0.5908
vt 0.0434 0.5908
vt 0.0131 0.5908
vt 0.0131 0.5832
vt 0.0282 0.5832
vt 0.0282 0.5908
vt 0.0434 0.5908
vt 0.0358 0.5908
vt 0.0358 0.5756
vt 0.0434 0.5756
vn 0.0000 1.0000 0.0000
vn 1.0000 0.0000 0.0000
vn -0.0000 -0.0000 1.0000
vn -1.0000 -0.0000 -0.0000
vn 0.0000 0.0000 -1.0000
usemtl Material
s off
f 5/1/1 8/2/1 7/3/1 6/4/1
f 9/5/2 5/6/2 6/7/2 10/8/2
f 10/9/3 6/10/3 7/11/3 11/12/3
f 11/13/4 7/14/4 8/15/4 12/16/4
f 9/17/5 1/18/5 4/19/5 12/20/5
f 5/21/5 9/22/5 12/23/5 8/24/5
f 3/25/4 11/26/4 12/27/4 4/28/4
f 2/29/3 10/30/3 11/31/3 3/32/3
f 1/33/2 9/34/2 10/35/2 2/36/2
