# Blender v2.77 (sub 0) OBJ File: 'salt-pond-empty.blend'
# www.blender.org
mtllib salt-pond-empty.mtl
o Plane
v -0.800869 0.000238 -0.803794
v -0.895412 0.018408 -0.640092
v -0.897336 0.094045 -0.642427
v -0.894163 0.017274 0.643926
v 0.895412 0.018408 0.640092
v 0.897336 0.094045 0.642427
v 0.894163 0.017274 -0.643926
v -0.999316 0.005167 0.481886
v -0.994419 0.095944 0.717126
v -0.999624 0.005171 -0.473947
v -0.988861 0.004595 -0.725389
v -0.988861 0.004595 0.725388
v 0.999624 0.005171 -0.473948
v 0.999316 0.005167 0.481886
v 0.988861 0.004595 0.725389
v 0.988861 0.004595 -0.725388
v -0.993376 0.099271 -0.719059
v -0.912130 0.099623 0.643387
v -0.907648 0.099926 -0.666519
v -0.719060 0.099271 0.993376
v 0.643387 0.099623 0.912130
v -0.666519 0.099926 0.907649
v 0.908105 0.099935 0.664986
v 0.912130 0.099623 -0.643387
v 0.993703 0.098393 0.718362
v 0.993823 0.098824 -0.717594
v 0.664986 0.099935 -0.908105
v -0.643388 0.099622 -0.912129
v 0.718362 0.098393 -0.993703
v -0.717594 0.098824 -0.993823
v -0.481886 0.005167 -0.999316
v 0.473948 0.005171 -0.999624
v 0.725390 0.004595 -0.988863
v -0.725390 0.004594 -0.988861
v 0.481886 0.005167 0.999316
v 0.717126 0.095944 0.994419
v -0.473948 0.005171 0.999624
v -0.725390 0.004595 0.988863
v 0.725390 0.004594 0.988861
v 0.640092 0.018408 -0.895412
v 0.642428 0.094045 -0.897336
v -0.643926 0.017274 -0.894163
v -0.640092 0.018408 0.895412
v -0.642428 0.094045 0.897336
v 0.643926 0.017274 0.894163
v 0.833866 0.005080 0.834584
v -0.924393 -0.002355 -0.924392
v -0.928643 0.015246 0.928642
v -0.927657 0.099668 0.927699
v 0.924393 -0.002355 0.924392
v 0.928643 0.015246 -0.928642
v 0.927784 0.098889 -0.927822
v -0.897747 0.094156 0.640832
v 0.640832 0.094156 0.897747
v 0.897747 0.094156 -0.640832
v -0.640832 0.094156 -0.897747
v -0.837880 0.098364 0.837880
v -0.927822 0.098889 -0.927784
v 0.837880 0.098364 -0.837880
v 0.837880 0.098364 0.837880
v 0.833825 0.003443 -0.833825
v -0.835689 0.016635 -0.835689
v -0.837880 0.098364 -0.837880
v -0.834078 0.003979 0.833816
v -0.915925 0.005171 0.915925
v 0.915925 0.005171 -0.915925
v 0.927698 0.099668 0.927657
vt 0.4070 0.4086
vt 0.4071 0.4151
vt 0.4065 0.4168
vt 0.4064 0.4070
vt 0.4116 0.4156
vt 0.4111 0.4156
vt 0.4111 0.4069
vt 0.4178 0.4051
vt 0.4176 0.3939
vt 0.4182 0.3950
vt 0.4110 0.4055
vt 0.4116 0.4055
vt 0.4116 0.4069
vt 0.4116 0.4170
vt 0.4110 0.4169
vt 0.4097 0.4156
vt 0.4092 0.4156
vt 0.4092 0.4069
vt 0.4068 0.3937
vt 0.4068 0.4051
vt 0.4064 0.4038
vt 0.4091 0.4055
vt 0.4097 0.4055
vt 0.4097 0.4069
vt 0.4097 0.4170
vt 0.4091 0.4169
vt 0.4091 0.4086
vt 0.4084 0.4069
vt 0.4090 0.4069
vt 0.4085 0.4168
vt 0.4091 0.4168
vt 0.4090 0.4182
vt 0.4091 0.4152
vt 0.4085 0.4182
vt 0.4070 0.4069
vt 0.4071 0.4168
vt 0.4070 0.4182
vt 0.4065 0.4182
vt 0.3933 0.4050
vt 0.3937 0.3937
vt 0.3938 0.3957
vt 0.3939 0.4046
vt 0.3939 0.3957
vt 0.3939 0.4045
vt 0.3943 0.4058
vt 0.3937 0.4064
vt 0.3951 0.3933
vt 0.4060 0.3937
vt 0.4041 0.3939
vt 0.3955 0.3939
vt 0.4041 0.3940
vt 0.3956 0.3940
vt 0.3943 0.3944
vt 0.4058 0.3955
vt 0.4064 0.4050
vt 0.4059 0.4045
vt 0.4060 0.4064
vt 0.4054 0.4058
vt 0.4058 0.4045
vt 0.4058 0.3957
vt 0.4054 0.3944
vt 0.4064 0.3952
vt 0.4042 0.4063
vt 0.3951 0.4069
vt 0.3956 0.4063
vt 0.3956 0.4062
vt 0.4041 0.4062
vt 0.4046 0.4069
vt 0.4084 0.4086
vt 0.4078 0.4070
vt 0.4084 0.4069
vt 0.3939 0.4094
vt 0.3933 0.4082
vt 0.3934 0.4082
vt 0.4078 0.4168
vt 0.4084 0.4168
vt 0.4084 0.4182
vt 0.4084 0.4152
vt 0.4077 0.4182
vt 0.4077 0.4086
vt 0.4071 0.4070
vt 0.4077 0.4069
vt 0.3945 0.4094
vt 0.3939 0.4082
vt 0.3940 0.4082
vt 0.4071 0.4168
vt 0.4077 0.4168
vt 0.4077 0.4182
vt 0.4077 0.4152
vt 0.4071 0.4182
vt 0.4103 0.4156
vt 0.4098 0.4156
vt 0.4098 0.4069
vt 0.4165 0.3933
vt 0.4178 0.3937
vt 0.4097 0.4055
vt 0.4103 0.4055
vt 0.4103 0.4069
vt 0.4103 0.4170
vt 0.4098 0.4170
vt 0.4109 0.4156
vt 0.4104 0.4156
vt 0.4104 0.4069
vt 0.4165 0.4055
vt 0.4103 0.4055
vt 0.4110 0.4055
vt 0.4109 0.4069
vt 0.4110 0.4170
vt 0.4103 0.4169
vt 0.4182 0.4038
vt 0.4064 0.3950
vt 0.4091 0.4055
vt 0.3945 0.4069
vt 0.4084 0.4055
vt 0.4071 0.4055
vt 0.3939 0.4069
vt 0.4064 0.4055
vt 0.3933 0.3952
vt 0.4046 0.3933
vt 0.4083 0.4055
vt 0.4078 0.4055
vt 0.4077 0.4055
vt 0.4071 0.4055
vt 0.4081 0.3933
vt 0.4081 0.4055
vn 0.9981 0.0610 0.0002
vn 0.9989 0.0465 -0.0009
vn 0.1915 0.9815 0.0016
vn 0.9560 0.0335 0.2915
vn 0.9553 0.0510 -0.2913
vn -0.9989 0.0465 0.0009
vn -0.2145 0.9767 -0.0010
vn -0.9551 0.0514 -0.2917
vn -0.9551 0.0532 0.2913
vn -0.9981 -0.0447 -0.0426
vn -0.9578 -0.0325 0.2855
vn -0.9986 0.0530 0.0003
vn -0.9532 0.0145 0.3020
vn -0.9979 0.0648 -0.0006
vn 0.9979 -0.0483 0.0427
vn -0.0013 1.0000 -0.0016
vn 0.9581 -0.0269 -0.2853
vn 0.9540 0.0127 -0.2997
vn -0.0009 1.0000 -0.0002
vn -0.0078 1.0000 0.0002
vn 0.3553 0.9348 0.0000
vn 0.2884 0.9513 0.1088
vn -0.0055 1.0000 -0.0035
vn -0.0002 1.0000 0.0009
vn 0.0002 1.0000 0.0078
vn 0.0000 0.9347 -0.3553
vn 0.1088 0.9513 -0.2884
vn -0.0004 1.0000 0.0074
vn 0.0096 1.0000 -0.0002
vn -0.0042 1.0000 0.0016
vn -0.3553 0.9347 -0.0000
vn -0.2907 0.9505 -0.1094
vn 0.0182 0.9998 -0.0003
vn -0.0002 1.0000 -0.0096
vn 0.0016 1.0000 0.0042
vn -0.0000 0.9347 0.3553
vn -0.1094 0.9505 0.2907
vn 0.0028 0.9999 -0.0163
vn 0.0426 -0.0483 -0.9979
vn 0.1889 -0.8529 -0.4868
vn -0.3073 -0.0247 -0.9513
vn -0.0003 0.0577 -0.9983
vn -0.2994 -0.0421 -0.9532
vn 0.0001 0.0631 -0.9980
vn -0.0426 -0.0447 0.9981
vn -0.1889 -0.8529 0.4868
vn 0.3071 -0.0301 0.9512
vn 0.0003 0.0530 0.9986
vn 0.3026 -0.0403 0.9523
vn -0.0006 0.0648 0.9979
vn 0.0009 0.0465 0.9989
vn 0.0015 0.9822 0.1878
vn 0.1067 0.9268 0.3600
vn -0.2917 0.0533 0.9550
vn 0.2912 0.0334 0.9561
vn -0.0009 0.0465 -0.9989
vn -0.0005 0.9740 -0.2265
vn 0.2917 0.0529 -0.9550
vn -0.2913 0.0463 -0.9555
vn 0.9536 0.0324 -0.2995
vn 0.9560 0.0333 0.2916
vn 0.2141 0.9768 0.0007
vn 0.3490 0.9320 0.0981
vn 0.9997 0.0254 0.0003
vn -0.9532 0.0323 0.3005
vn -0.9535 0.0335 -0.2994
vn -0.2215 0.9752 -0.0006
vn -0.9997 0.0254 -0.0003
vn -0.9513 -0.0248 -0.3073
vn -0.9975 -0.0568 0.0427
vn -0.4868 -0.8529 0.1889
vn -0.9532 -0.0423 -0.2993
vn 0.9513 -0.0261 0.3073
vn 0.9979 -0.0490 -0.0426
vn 0.4868 -0.8529 -0.1889
vn 0.9528 -0.0405 0.3007
vn 0.0152 0.9999 0.0007
vn 0.3338 0.9348 -0.1214
vn 0.0106 0.9999 -0.0048
vn 0.4921 0.8706 0.0019
vn -0.0628 0.9980 0.0023
vn 0.0007 0.9999 -0.0152
vn -0.1214 0.9348 -0.3338
vn -0.0023 0.9999 -0.0168
vn 0.0019 0.8706 -0.4921
vn 0.0023 0.9980 0.0628
vn 0.0029 1.0000 -0.0076
vn -0.3338 0.9348 0.1214
vn -0.0168 0.9999 0.0023
vn -0.4772 0.8788 -0.0017
vn 0.0178 0.9998 0.0003
vn -0.0076 1.0000 -0.0029
vn 0.1214 0.9348 0.3338
vn 0.0048 0.9999 0.0106
vn -0.0017 0.8788 0.4772
vn 0.0003 0.9998 -0.0178
vn 0.2853 -0.0281 -0.9580
vn -0.0427 -0.0490 -0.9979
vn 0.3000 0.0124 -0.9538
vn -0.2853 -0.0266 0.9581
vn 0.0427 -0.0568 0.9975
vn -0.3003 0.0142 0.9538
vn 0.2914 0.0328 0.9560
vn -0.3004 0.0335 0.9532
vn -0.0006 0.9713 0.2380
vn -0.0003 0.0254 0.9997
vn -0.2972 0.0325 -0.9543
vn 0.3002 0.0335 -0.9533
vn 0.0007 0.9801 -0.1985
vn 0.0003 0.0254 -0.9997
usemtl None
s off
f 14/1/1 13/2/1 26/3/1 25/4/1
f 53/5/2 4/6/2 2/7/2
f 64/8/3 1/9/3 2/10/3
f 62/11/4 63/12/4 3/13/4
f 53/5/5 57/14/5 64/15/5
f 55/16/6 7/17/6 5/18/6
f 61/19/7 46/20/7 5/21/7
f 46/22/8 60/23/8 6/24/8
f 55/16/9 59/25/9 61/26/9
f 10/27/10 17/28/10 11/29/10
f 9/30/11 12/31/11 48/32/11
f 10/27/12 8/33/12 9/30/12
f 9/30/13 48/32/13 49/34/13
f 10/27/14 9/30/14 17/28/14
f 14/1/15 25/4/15 15/35/15
f 61/19/16 1/9/16 64/8/16 46/20/16
f 26/3/17 16/36/17 51/37/17
f 26/3/18 51/37/18 52/38/18
f 17/39/19 49/40/19 18/41/19
f 17/39/20 18/41/20 19/42/20
f 18/41/21 53/43/21 3/44/21
f 19/42/22 3/44/22 63/45/22
f 19/42/23 58/46/23 17/39/23
f 20/47/24 67/48/24 21/49/24
f 20/47/25 21/49/25 22/50/25
f 21/49/26 54/51/26 44/52/26
f 22/50/27 44/52/27 57/53/27
f 22/50/28 49/40/28 20/47/28
f 23/54/29 26/55/29 24/56/29
f 26/55/30 52/57/30 59/58/30
f 24/56/31 55/59/31 6/60/31
f 23/54/32 6/60/32 60/61/32
f 23/54/33 67/48/33 25/62/33
f 27/63/34 30/64/34 28/65/34
f 30/64/35 58/46/35 63/45/35
f 28/65/36 56/66/36 41/67/36
f 27/63/37 41/67/37 59/58/37
f 27/63/38 52/57/38 29/68/38
f 32/69/39 29/70/39 33/71/39
f 33/72/40 51/73/40 66/74/40
f 30/75/41 34/76/41 47/77/41
f 32/69/42 31/78/42 30/75/42
f 30/75/43 47/77/43 58/79/43
f 32/69/44 30/75/44 29/70/44
f 37/80/45 20/81/45 38/82/45
f 38/83/46 48/84/46 65/85/46
f 36/86/47 39/87/47 50/88/47
f 37/80/48 35/89/48 36/86/48
f 36/86/49 50/88/49 67/90/49
f 37/80/50 36/86/50 20/81/50
f 56/91/51 42/92/51 40/93/51
f 42/94/52 1/9/52 61/19/52
f 42/94/53 62/95/53 1/9/53
f 61/96/54 59/97/54 41/98/54
f 56/91/55 63/99/55 62/100/55
f 54/101/56 45/102/56 43/103/56
f 46/20/57 64/8/57 43/104/57
f 64/105/58 57/106/58 44/107/58
f 54/101/59 60/108/59 46/109/59
f 53/5/60 64/15/60 4/6/60
f 3/13/61 2/7/61 62/11/61
f 4/110/62 64/8/62 2/10/62
f 62/95/63 2/10/63 1/9/63
f 2/7/64 3/13/64 53/5/64
f 55/16/65 61/26/65 7/17/65
f 6/24/66 5/18/66 46/22/66
f 7/111/67 61/19/67 5/21/67
f 5/18/68 6/24/68 55/16/68
f 11/29/69 17/28/69 47/112/69
f 9/30/70 8/33/70 12/31/70
f 48/84/71 12/113/71 65/85/71
f 47/112/72 17/28/72 58/114/72
f 15/35/73 25/4/73 50/115/73
f 26/3/74 13/2/74 16/36/74
f 51/73/75 16/116/75 66/74/75
f 50/115/76 25/4/76 67/117/76
f 18/41/77 49/40/77 57/53/77
f 53/43/78 18/41/78 57/53/78
f 58/46/79 19/42/79 63/45/79
f 19/42/80 18/41/80 3/44/80
f 17/39/81 9/118/81 49/40/81
f 21/49/82 67/48/82 60/61/82
f 54/51/83 21/49/83 60/61/83
f 49/40/84 22/50/84 57/53/84
f 22/50/85 21/49/85 44/52/85
f 20/47/86 36/119/86 67/48/86
f 24/56/87 26/55/87 59/58/87
f 55/59/88 24/56/88 59/58/88
f 67/48/89 23/54/89 60/61/89
f 23/54/90 24/56/90 6/60/90
f 23/54/91 25/62/91 26/55/91
f 28/65/92 30/64/92 63/45/92
f 56/66/93 28/65/93 63/45/93
f 52/57/94 27/63/94 59/58/94
f 27/63/95 28/65/95 41/67/95
f 27/63/96 29/68/96 30/64/96
f 33/71/97 29/70/97 51/120/97
f 30/75/98 31/78/98 34/76/98
f 51/120/99 29/70/99 52/121/99
f 38/82/100 20/81/100 48/122/100
f 36/86/101 35/89/101 39/87/101
f 48/122/102 20/81/102 49/123/102
f 56/91/103 62/100/103 42/92/103
f 41/98/104 40/93/104 61/96/104
f 42/94/105 61/19/105 40/124/105
f 40/93/106 41/98/106 56/91/106
f 54/101/107 46/109/107 45/102/107
f 44/107/108 43/103/108 64/105/108
f 45/125/109 46/20/109 43/104/109
f 43/103/110 44/107/110 54/101/110
