# Blender v2.77 (sub 0) OBJ File: 'stake.blend'
# www.blender.org
mtllib stake.mtl
o Cube
v -0.012403 -0.050000 0.012403
v -0.033991 0.150000 0.033991
v -0.012403 -0.050000 -0.012403
v -0.033991 0.150000 -0.033991
v 0.012403 -0.050000 0.012403
v 0.033991 0.136812 0.033991
v 0.012403 -0.025874 -0.012403
v 0.033991 0.150000 -0.033991
vt 0.2192 0.1060
vt 0.2113 0.1060
vt 0.2138 0.0830
vt 0.2167 0.0830
vt 0.2270 0.1061
vt 0.2192 0.1053
vt 0.2238 0.0855
vt 0.2270 0.0830
vt 0.2113 0.1067
vt 0.2037 0.1044
vt 0.2083 0.0834
vt 0.2109 0.0864
vt 0.2270 0.0853
vt 0.2346 0.0830
vt 0.2346 0.1061
vt 0.2318 0.1064
vt 0.2085 0.0830
vt 0.2113 0.0833
vt 0.2190 0.1061
vt 0.2270 0.1062
vt 0.2269 0.1140
vt 0.2191 0.1140
vn -0.9942 -0.1073 0.0000
vn 0.0297 -0.1141 -0.9930
vn 0.9919 -0.1181 -0.0475
vn -0.0158 -0.1109 0.9937
vn 0.4007 -0.8240 -0.4007
vn 0.0961 0.9907 0.0961
usemtl None
s off
f 2/1/1 4/2/1 3/3/1 1/4/1
f 4/5/2 8/6/2 7/7/2 3/8/2
f 8/9/3 6/10/3 5/11/3 7/12/3
f 6/13/4 2/14/4 1/15/4 5/16/4
f 1/17/5 3/18/5 7/12/5 5/11/5
f 6/19/6 8/20/6 4/21/6 2/22/6
