# Blender v2.77 (sub 0) OBJ File: 'tree0.blend'
# www.blender.org
mtllib tree0.mtl
o Cone
v -0.000011 0.276747 -0.207528
v 0.005968 5.802340 -0.005012
v 0.040588 0.277226 -0.203916
v 0.079859 0.278164 -0.192707
v 0.116134 0.278873 -0.173764
v 0.147580 0.278669 -0.147593
v 0.172297 0.276947 -0.115186
v 0.196998 0.269423 -0.039295
v 0.171013 0.251252 0.070769
v 0.097259 0.240366 0.145545
v 0.066572 0.239204 0.160710
v -0.035455 0.242015 0.177724
v -0.033851 0.238755 0.170189
v -0.066568 0.239203 0.160711
v -0.097253 0.240364 0.145545
v -0.170996 0.251238 0.070778
v -0.196995 0.269413 -0.039268
v -0.172307 0.276939 -0.115158
v -0.147598 0.278664 -0.147567
v -0.079887 0.278166 -0.192695
v -0.040625 0.277317 -0.203991
v 0.184169 2.502788 -0.430262
v 0.058608 2.471577 0.461137
v 0.229183 2.680086 0.371285
v 0.360395 2.646063 0.259213
v -0.034038 1.744492 -0.516515
v -0.238186 1.715906 -0.452286
v -0.201545 1.708016 0.472210
v 0.486309 1.862651 -0.155522
v -0.044097 0.869483 -0.454825
v -0.305553 0.886403 -0.341015
v 0.096909 0.974071 0.473116
v 0.353901 0.937116 0.324696
v 0.156779 1.040308 -0.456762
v -0.122302 0.450638 -0.321919
v -0.100162 0.409103 0.327037
v 0.214402 0.411975 0.268608
v 0.317908 0.436553 0.153459
v 0.347708 0.440776 -0.000630
v 0.152724 0.360891 -0.240270
v 0.020353 0.276871 -0.206548
v 0.060462 0.277658 -0.199201
v 0.132534 0.278915 -0.161479
v 0.181614 0.275526 -0.097153
v 0.193991 0.271776 -0.058948
v 0.197483 0.266675 -0.019561
v 0.192210 0.260532 0.018828
v 0.179374 0.254200 0.054333
v -0.208811 0.276686 -0.044842
v 0.160700 0.248550 0.085844
v 0.137762 0.244309 0.113028
v 0.111271 0.241370 0.135566
v -0.184533 0.259221 0.074221
v 0.050225 0.238918 0.165560
v 0.016936 0.238668 0.171932
v -0.016932 0.238668 0.171933
v -0.050221 0.238917 0.165561
v -0.111264 0.241365 0.135566
v -0.137751 0.244301 0.113029
v -0.160685 0.248538 0.085850
v -0.179357 0.254186 0.054344
v -0.192196 0.260517 0.018847
v -0.197476 0.266662 -0.019537
v -0.193991 0.271766 -0.058920
v -0.181621 0.275517 -0.097124
v -0.132556 0.278911 -0.161455
v -0.098468 0.278560 -0.184090
v -0.020366 0.276779 -0.206469
v 0.094448 5.119219 0.070044
v -0.046627 2.502224 -0.461986
v -0.400421 2.599146 -0.212952
v -0.032387 5.604831 0.039994
v -0.360393 2.646085 0.259181
v -0.181117 2.548848 0.421496
v -0.482599 1.914822 0.158525
v -0.371624 1.835298 0.354359
v 0.482591 1.914876 0.158500
v 0.000007 1.660601 0.515722
v -0.386615 1.685672 -0.324252
v 0.199502 1.836153 0.474832
v 0.371623 1.835328 0.354367
v 0.485732 1.052858 0.003352
v 0.381262 1.260950 -0.307666
v -0.453691 0.791312 -0.010451
v -0.353899 0.937099 0.324691
v 0.455828 0.980015 -0.127865
v -0.241290 2.377012 -0.415959
v -0.103778 0.945414 0.466824
v 0.349614 0.654452 -0.215766
v 0.069154 0.423320 0.343997
v -0.235740 0.420826 0.258816
v -0.016294 0.407228 -0.315137
v -0.299718 0.464690 -0.184911
v -0.326648 0.428433 0.117235
v 0.270230 0.374759 -0.119578
v 0.208822 0.276686 -0.044921
v 0.063032 0.242901 0.169595
v -0.147304 0.291639 -0.169977
v 0.155011 0.460198 -0.315438
v -0.486294 1.862599 -0.155584
v 0.274452 1.845085 -0.433930
v -0.488453 1.188267 -0.096573
v 0.370809 2.519396 -0.273589
v 0.434200 2.740517 0.000246
v -0.434177 2.740683 0.000245
vt 0.5362 0.1624
vt 0.5381 0.1586
vt 0.5386 0.1620
vt 0.5408 0.1599
vt 0.5189 0.1486
vt 0.5180 0.1486
vt 0.5172 0.1487
vt 0.5164 0.1490
vt 0.5156 0.1492
vt 0.5149 0.1496
vt 0.5141 0.1500
vt 0.5135 0.1505
vt 0.5129 0.1510
vt 0.5123 0.1517
vt 0.5118 0.1523
vt 0.5114 0.1531
vt 0.5110 0.1538
vt 0.5108 0.1546
vt 0.5105 0.1554
vt 0.5105 0.1562
vt 0.5104 0.1570
vt 0.5105 0.1579
vt 0.5105 0.1587
vt 0.5108 0.1595
vt 0.5110 0.1603
vt 0.5114 0.1610
vt 0.5118 0.1618
vt 0.5123 0.1624
vt 0.5129 0.1630
vt 0.5135 0.1636
vt 0.5141 0.1641
vt 0.5149 0.1645
vt 0.5156 0.1649
vt 0.5164 0.1651
vt 0.5172 0.1654
vt 0.5180 0.1654
vt 0.5189 0.1655
vt 0.5197 0.1654
vt 0.5205 0.1654
vt 0.5213 0.1651
vt 0.5221 0.1649
vt 0.5228 0.1645
vt 0.5236 0.1641
vt 0.5242 0.1636
vt 0.5249 0.1630
vt 0.5254 0.1624
vt 0.5259 0.1618
vt 0.5263 0.1610
vt 0.5267 0.1603
vt 0.5269 0.1595
vt 0.5272 0.1587
vt 0.5273 0.1579
vt 0.5273 0.1570
vt 0.5273 0.1562
vt 0.5272 0.1554
vt 0.5269 0.1546
vt 0.5267 0.1538
vt 0.5263 0.1531
vt 0.5259 0.1523
vt 0.5254 0.1517
vt 0.5249 0.1510
vt 0.5242 0.1505
vt 0.5236 0.1500
vt 0.5228 0.1496
vt 0.5221 0.1492
vt 0.5213 0.1490
vt 0.5205 0.1487
vt 0.5197 0.1486
vt 0.5314 0.1570
vt 0.5354 0.1588
vt 0.5322 0.1599
vt 0.5365 0.1570
vt 0.5311 0.1525
vt 0.5332 0.1518
vt 0.5306 0.1552
vt 0.5306 0.1590
vt 0.5293 0.1575
vt 0.5320 0.1615
vt 0.5341 0.1616
vt 0.5425 0.1552
vt 0.5416 0.1570
vt 0.5411 0.1543
vt 0.5434 0.1530
vt 0.5398 0.1497
vt 0.5425 0.1513
vt 0.5316 0.1636
vt 0.5351 0.1649
vt 0.5326 0.1645
vt 0.5291 0.1537
vt 0.5285 0.1574
vt 0.5282 0.1564
vt 0.5390 0.1651
vt 0.5382 0.1654
vt 0.5368 0.1655
vt 0.5386 0.1648
vt 0.5333 0.1498
vt 0.5317 0.1505
vt 0.5318 0.1500
vt 0.5318 0.1641
vt 0.5299 0.1530
vt 0.5418 0.1631
vt 0.5412 0.1641
vt 0.5448 0.1564
vt 0.5441 0.1597
vt 0.5372 0.1496
vt 0.5374 0.1489
vt 0.5390 0.1631
vt 0.5365 0.1636
vt 0.5393 0.1523
vt 0.5371 0.1517
vt 0.5369 0.1506
vt 0.5415 0.1528
vt 0.5424 0.1590
vt 0.5410 0.1615
vt 0.5382 0.1643
vt 0.5420 0.1620
vt 0.5342 0.1629
vt 0.5322 0.1540
vt 0.5347 0.1521
vt 0.5341 0.1502
vt 0.5294 0.1551
vt 0.5293 0.1606
vt 0.5311 0.1620
vt 0.5350 0.1643
vt 0.5441 0.1570
vt 0.5416 0.1515
vt 0.5395 0.1512
vt 0.5435 0.1556
vt 0.5437 0.1613
vt 0.5357 0.1486
vt 0.5365 0.1486
vt 0.5341 0.1490
vt 0.5333 0.1492
vt 0.5349 0.1487
vt 0.5305 0.1510
vt 0.5312 0.1505
vt 0.5295 0.1523
vt 0.5291 0.1531
vt 0.5282 0.1554
vt 0.5284 0.1546
vt 0.5281 0.1562
vt 0.5281 0.1579
vt 0.5287 0.1603
vt 0.5284 0.1595
vt 0.5291 0.1610
vt 0.5300 0.1624
vt 0.5312 0.1636
vt 0.5341 0.1651
vt 0.5333 0.1649
vt 0.5357 0.1654
vt 0.5374 0.1654
vt 0.5398 0.1649
vt 0.5419 0.1636
vt 0.5430 0.1624
vt 0.5440 0.1610
vt 0.5444 0.1603
vt 0.5446 0.1595
vt 0.5449 0.1579
vt 0.5449 0.1562
vt 0.5448 0.1554
vt 0.5446 0.1546
vt 0.5440 0.1531
vt 0.5436 0.1523
vt 0.5419 0.1505
vt 0.5425 0.1510
vt 0.5405 0.1496
vt 0.5398 0.1492
vt 0.5374 0.1486
vt 0.5382 0.1487
vn -0.1212 0.1288 0.9842
vn -0.6272 0.1265 0.7685
vn 0.0005 -0.9968 -0.0803
vn 0.9412 0.1252 0.3139
vn 0.9859 0.1381 0.0942
vn 0.7953 0.0144 -0.6061
vn 0.9999 0.0016 0.0116
vn 0.9435 0.1149 0.3108
vn 0.6608 0.0965 0.7443
vn -0.9713 0.0963 -0.2177
vn -0.5428 -0.5340 -0.6482
vn 0.3010 -0.6680 0.6805
vn 0.7743 -0.6108 -0.1654
vn -0.3576 -0.7041 0.6135
vn -0.1013 -0.5989 -0.7944
vn 0.3777 -0.6959 0.6108
vn 0.6930 -0.4157 -0.5890
vn -0.3750 -0.6819 0.6280
vn -0.8479 -0.5121 -0.1370
vn -0.0585 -0.2920 -0.9546
vn 0.8595 -0.3665 -0.3564
vn -0.1654 0.0706 0.9837
vn -0.2688 0.0647 -0.9610
vn -0.7469 0.0693 -0.6613
vn -0.9435 0.1149 0.3108
vn -0.6380 0.0985 0.7637
vn -0.5357 0.0638 0.8420
vn -0.4684 -0.2213 0.8553
vn 0.1535 0.0553 0.9866
vn 0.3645 0.1008 0.9257
vn 0.9449 0.1108 -0.3082
vn 0.6355 0.0915 -0.7667
vn 0.1356 0.0734 -0.9880
vn 0.1889 -0.2330 -0.9540
vn 0.8318 -0.1253 -0.5408
vn 0.9707 -0.2183 -0.1001
vn 0.9314 -0.1760 0.3187
vn 0.4630 -0.2244 0.8575
vn 0.0021 -0.2284 0.9736
vn -0.9138 -0.1944 0.3567
vn -0.8782 -0.1766 -0.4444
vn -0.2913 -0.0639 -0.9545
vn -0.6466 -0.0496 -0.7613
vn -0.8776 -0.0390 -0.4778
vn -0.9999 0.0042 0.0111
vn -0.9849 -0.0503 0.1658
vn -0.8753 -0.0332 0.4825
vn -0.5883 -0.0383 0.8077
vn -0.2187 -0.0349 0.9752
vn 0.2249 -0.0287 0.9740
vn 0.5729 -0.0383 0.8188
vn 0.8753 -0.0332 0.4824
vn 0.9788 -0.0401 -0.2008
vn 0.8961 -0.0448 -0.4416
vn 0.2619 -0.0109 -0.9650
vn -0.9406 0.1276 0.3146
vn -0.9600 0.1381 -0.2436
vn -0.7031 0.1345 -0.6983
vn -0.9654 0.1369 -0.2220
vn 0.2955 0.1357 0.9457
vn 0.3388 0.1460 0.9295
vn 0.3291 0.1336 0.9348
vn 0.6631 0.1277 0.7376
vn 0.6303 0.1326 -0.7649
vn 0.1346 0.1338 -0.9818
vn 0.6437 -0.1474 -0.7510
vn 0.9983 0.0589 0.0020
vn -0.8549 0.0722 0.5137
vn -0.5999 -0.2850 -0.7476
vn -0.6557 -0.6488 0.3861
vn 0.0411 -0.6326 -0.7733
vn 0.2654 -0.6119 -0.7451
vn 0.1974 -0.5973 -0.7774
vn 0.5037 -0.6599 -0.5575
vn 0.4432 -0.6755 -0.5893
vn 0.5965 -0.6201 -0.5095
vn 0.6436 -0.6617 -0.3847
vn 0.4539 -0.8739 -0.1740
vn 0.6069 -0.6858 -0.4017
vn 0.4720 -0.8715 -0.1330
vn 0.7585 -0.6508 0.0327
vn 0.7059 -0.6665 0.2396
vn 0.7548 -0.6432 0.1284
vn 0.6615 -0.6725 0.3320
vn 0.6191 -0.6672 0.4141
vn 0.4456 -0.7023 0.5551
vn -0.0105 -0.6948 0.7191
vn 0.1427 -0.8924 0.4281
vn 0.0364 -0.6868 0.7260
vn -0.0448 -0.9203 0.3886
vn -0.0181 -0.6701 0.7420
vn -0.2131 -0.7047 0.6768
vn -0.4488 -0.6961 0.5603
vn -0.5820 -0.6850 0.4382
vn -0.4693 -0.8673 0.1657
vn -0.7701 -0.6368 -0.0392
vn -0.4882 -0.8678 0.0927
vn -0.7689 -0.6382 0.0385
vn -0.4733 -0.8708 -0.1329
vn -0.6320 -0.6358 -0.4432
vn -0.4553 -0.8732 -0.1741
vn -0.6822 -0.6117 -0.4005
vn -0.6469 -0.6093 -0.4585
vn -0.1578 -0.6691 -0.7262
vn -0.4123 -0.7861 -0.4605
vn -0.3418 -0.6159 -0.7098
vn -0.2048 -0.6187 -0.7585
vn -0.0410 -0.6388 -0.7683
vn -0.1105 -0.6341 -0.7653
vn -0.9216 -0.3671 -0.1262
vn 0.0860 -0.2835 -0.9551
vn -0.3062 0.0508 -0.9506
vn -0.6571 0.0383 -0.7528
vn -0.8336 0.0544 -0.5497
vn -0.9983 0.0589 0.0020
vn 0.5718 0.0801 0.8165
vn 0.8550 0.0721 0.5137
vn 0.7945 0.0307 -0.6065
vn 0.2464 0.0392 -0.9684
vn 0.5926 -0.1924 -0.7822
vn 0.9412 -0.2439 -0.2339
vn 0.9594 -0.2175 0.1796
vn 0.7447 -0.2633 0.6132
vn 0.4375 -0.2096 0.8744
vn -0.0755 -0.2520 0.9648
vn -0.8202 -0.2532 0.5130
vn 0.1751 -0.5947 -0.7847
vn -0.8792 -0.1733 -0.4438
vn -0.4017 -0.2080 -0.8918
vn 0.0506 -0.0708 -0.9962
vn -0.4024 -0.0895 -0.9111
vn -0.8401 -0.0739 -0.5373
vn -0.9470 -0.0715 0.3131
vn -0.4911 -0.0691 0.8683
vn -0.0220 -0.0650 0.9976
vn 0.4927 -0.0604 0.8681
vn 0.9310 -0.0614 0.3598
vn 0.5952 -0.0643 -0.8010
vn 0.9375 0.1306 -0.3225
vn -0.3096 0.1353 -0.9412
usemtl Material
s off
f 23/1/1 72/2/1 74/3/1
f 74/3/2 72/2/2 73/4/2
f 1/5/3 41/6/3 3/7/3 42/8/3 4/9/3 99/10/3 5/11/3 43/12/3 6/13/3 40/14/3 7/15/3 44/16/3 95/17/3 45/18/3 8/19/3 46/20/3 96/21/3 47/22/3 39/23/3 48/24/3 9/25/3 50/26/3 38/27/3 51/28/3 37/29/3 52/30/3 10/31/3 97/32/3 11/33/3 54/34/3 90/35/3 55/36/3 12/37/3 56/38/3 13/39/3 57/40/3 14/41/3 36/42/3 15/43/3 58/44/3 91/45/3 59/46/3 53/47/3 60/48/3 16/49/3 61/50/3 94/51/3 62/52/3 49/53/3 63/54/3 17/55/3 64/56/3 93/57/3 65/58/3 18/59/3 98/60/3 19/61/3 66/62/3 35/63/3 67/64/3 20/65/3 92/66/3 21/67/3 68/68/3
f 104/69/4 69/70/4 25/71/4
f 104/69/5 2/72/5 69/70/5
f 83/73/6 101/74/6 29/75/6
f 29/75/7 77/76/7 82/77/7
f 77/76/8 104/69/8 25/71/8
f 81/78/9 25/71/9 24/79/9
f 100/80/10 105/81/10 71/82/10
f 93/83/11 35/84/11 98/85/11
f 37/86/12 90/87/12 97/88/12
f 95/89/13 39/90/13 96/91/13
f 57/92/14 13/93/14 12/94/14 36/95/14
f 99/96/15 40/97/15 5/98/15
f 10/99/16 37/86/16 97/88/16
f 40/97/17 99/96/17 89/100/17 95/89/17
f 36/95/18 91/101/18 15/102/18
f 49/103/19 94/104/19 93/83/19
f 35/84/20 30/105/20 92/106/20
f 89/100/21 39/90/21 95/89/21
f 28/107/22 78/108/22 23/1/22 74/3/22
f 87/109/23 70/110/23 26/111/23
f 79/112/24 71/82/24 87/109/24
f 73/4/25 105/81/25 75/113/25
f 74/3/26 73/4/26 76/114/26
f 28/107/27 74/3/27 76/114/27
f 91/101/28 36/95/28 88/115/28 85/116/28
f 80/117/29 23/1/29 78/108/29
f 24/79/30 23/1/30 80/117/30
f 103/118/31 104/69/31 29/75/31
f 22/119/32 103/118/32 101/74/32
f 70/110/33 22/119/33 26/111/33
f 99/96/34 30/105/34 34/120/34
f 89/100/35 83/73/35 86/121/35
f 39/90/36 86/121/36 82/77/36
f 38/122/37 82/77/37 33/123/37
f 33/123/38 32/124/38 90/87/38
f 32/124/39 88/115/39 90/87/39
f 85/116/40 84/125/40 94/104/40
f 84/125/41 31/126/41 93/83/41
f 30/105/42 27/127/42 26/111/42
f 31/126/43 79/112/43 27/127/43
f 100/80/44 79/112/44 102/128/44
f 102/128/45 75/113/45 100/80/45
f 84/125/46 75/113/46 102/128/46
f 76/114/47 75/113/47 85/116/47
f 28/107/48 76/114/48 85/116/48
f 78/108/49 28/107/49 88/115/49
f 32/124/50 80/117/50 78/108/50
f 33/123/51 81/78/51 80/117/51
f 33/123/52 77/76/52 81/78/52
f 86/121/53 29/75/53 82/77/53
f 86/121/54 83/73/54 29/75/54
f 34/120/55 26/111/55 101/74/55
f 73/4/56 72/2/56 105/81/56
f 72/2/57 71/82/57 105/81/57
f 71/82/58 2/72/58 87/109/58
f 72/2/59 2/72/59 71/82/59
f 23/1/60 69/70/60 72/2/60
f 69/70/61 2/72/61 72/2/61
f 24/79/62 69/70/62 23/1/62
f 25/71/63 69/70/63 24/79/63
f 103/118/64 22/119/64 2/72/64
f 70/110/65 2/72/65 22/119/65
f 34/120/66 83/73/66 89/100/66
f 77/76/67 29/75/67 104/69/67
f 75/113/68 76/114/68 73/4/68
f 93/83/69 31/126/69 35/84/69
f 53/129/70 91/101/70 94/104/70
f 41/130/71 1/131/71 92/106/71
f 42/132/72 99/96/72 4/133/72
f 3/134/73 99/96/73 42/132/73
f 6/135/74 43/136/74 40/97/74
f 43/136/75 5/98/75 40/97/75
f 7/137/76 40/97/76 95/89/76
f 44/138/77 7/137/77 95/89/77
f 8/139/78 45/140/78 96/91/78
f 45/140/79 95/89/79 96/91/79
f 46/141/80 8/139/80 96/91/80
f 47/142/81 96/91/81 39/90/81
f 9/143/82 48/144/82 38/122/82
f 48/144/83 39/90/83 38/122/83
f 50/145/84 9/143/84 38/122/84
f 51/146/85 38/122/85 37/86/85
f 52/147/86 37/86/86 10/99/86
f 54/148/87 97/88/87 90/87/87
f 54/148/88 11/149/88 97/88/88
f 55/150/89 90/87/89 12/94/89
f 56/151/90 12/94/90 13/93/90
f 12/94/91 90/87/91 36/95/91
f 57/92/92 36/95/92 14/152/92
f 58/153/93 15/102/93 91/101/93
f 59/154/94 91/101/94 53/129/94
f 60/155/95 53/129/95 16/156/95
f 61/157/96 53/129/96 94/104/96
f 16/156/97 53/129/97 61/157/97
f 62/158/98 94/104/98 49/103/98
f 63/159/99 49/103/99 17/160/99
f 64/161/100 49/103/100 93/83/100
f 17/160/101 49/103/101 64/161/101
f 65/162/102 93/83/102 18/163/102
f 18/163/103 93/83/103 98/85/103
f 66/164/104 98/85/104 35/84/104
f 19/165/105 98/85/105 66/164/105
f 67/166/106 35/84/106 20/167/106
f 92/106/107 20/167/107 35/84/107
f 68/168/108 92/106/108 1/131/108
f 68/168/109 21/169/109 92/106/109
f 93/83/110 94/104/110 84/125/110
f 99/96/111 92/106/111 30/105/111
f 26/111/112 27/127/112 87/109/112
f 27/127/113 79/112/113 87/109/113
f 100/80/114 71/82/114 79/112/114
f 75/113/115 105/81/115 100/80/115
f 81/78/116 24/79/116 80/117/116
f 77/76/117 25/71/117 81/78/117
f 29/75/118 101/74/118 103/118/118
f 26/111/119 22/119/119 101/74/119
f 99/96/120 34/120/120 89/100/120
f 39/90/121 89/100/121 86/121/121
f 38/122/122 39/90/122 82/77/122
f 37/86/123 38/122/123 33/123/123
f 90/87/124 37/86/124 33/123/124
f 90/87/125 88/115/125 36/95/125
f 91/101/126 85/116/126 94/104/126
f 41/130/127 92/106/127 99/96/127 3/134/127
f 84/125/128 102/128/128 31/126/128
f 35/84/129 31/126/129 30/105/129
f 30/105/130 26/111/130 34/120/130
f 30/105/131 31/126/131 27/127/131
f 102/128/132 79/112/132 31/126/132
f 85/116/133 75/113/133 84/125/133
f 88/115/134 28/107/134 85/116/134
f 88/115/135 32/124/135 78/108/135
f 32/124/136 33/123/136 80/117/136
f 33/123/137 82/77/137 77/76/137
f 34/120/138 101/74/138 83/73/138
f 103/118/139 2/72/139 104/69/139
f 87/109/140 2/72/140 70/110/140
o Cylinder
v -0.000000 0.000000 -0.120000
v -0.000000 0.360000 -0.096000
v 0.048808 0.000000 -0.109625
v 0.039047 0.360000 -0.087700
v 0.089177 0.000000 -0.080296
v 0.071342 0.360000 -0.064237
v 0.114127 0.000000 -0.037082
v 0.091301 0.360000 -0.029666
v 0.119343 0.000000 0.012543
v 0.095474 0.360000 0.010035
v 0.103923 0.000000 0.060000
v 0.083138 0.360000 0.048000
v 0.070534 0.000000 0.097082
v 0.056427 0.360000 0.077666
v 0.024949 0.000000 0.117378
v 0.019960 0.360000 0.093902
v -0.024949 0.000000 0.117378
v -0.019960 0.360000 0.093902
v -0.070534 0.000000 0.097082
v -0.056427 0.360000 0.077666
v -0.103923 0.000000 0.060000
v -0.083138 0.360000 0.048000
v -0.119343 0.000000 0.012543
v -0.095474 0.360000 0.010035
v -0.114127 0.000000 -0.037082
v -0.091301 0.360000 -0.029666
v -0.089177 0.000000 -0.080296
v -0.071342 0.360000 -0.064237
v -0.048808 0.000000 -0.109625
v -0.039047 0.360000 -0.087700
vt 0.2266 0.0827
vt 0.2263 0.0922
vt 0.2254 0.0922
vt 0.2254 0.0827
vt 0.2245 0.0922
vt 0.2243 0.0827
vt 0.2239 0.0922
vt 0.2235 0.0827
vt 0.2310 0.0827
vt 0.2307 0.0922
vt 0.2298 0.0922
vt 0.2299 0.0827
vt 0.2289 0.0922
vt 0.2288 0.0827
vt 0.2280 0.0922
vt 0.2277 0.0827
vt 0.2193 0.0827
vt 0.2189 0.0922
vt 0.2180 0.0922
vt 0.2182 0.0827
vt 0.2171 0.0922
vt 0.2171 0.0827
vt 0.2162 0.0922
vt 0.2160 0.0827
vt 0.2155 0.0922
vt 0.2152 0.0827
vt 0.2235 0.0827
vt 0.2230 0.0922
vt 0.2222 0.0922
vt 0.2224 0.0827
vt 0.2212 0.0922
vt 0.2212 0.0827
vt 0.2203 0.0922
vt 0.2201 0.0827
vt 0.2280 0.0942
vt 0.2280 0.0953
vt 0.2276 0.0962
vt 0.2269 0.0969
vt 0.2260 0.0973
vt 0.2251 0.0971
vt 0.2243 0.0966
vt 0.2237 0.0958
vt 0.2235 0.0947
vt 0.2237 0.0937
vt 0.2243 0.0929
vt 0.2251 0.0923
vt 0.2260 0.0922
vt 0.2269 0.0925
vt 0.2276 0.0933
vt 0.2197 0.0922
vt 0.2193 0.0827
vt 0.2277 0.0827
vt 0.2272 0.0922
vt 0.2208 0.0947
vt 0.2208 0.0960
vt 0.2204 0.0972
vt 0.2195 0.0981
vt 0.2183 0.0985
vt 0.2172 0.0984
vt 0.2161 0.0977
vt 0.2154 0.0967
vt 0.2152 0.0954
vt 0.2154 0.0941
vt 0.2161 0.0930
vt 0.2172 0.0924
vt 0.2183 0.0922
vt 0.2195 0.0926
vt 0.2204 0.0935
vn 0.2075 0.0651 -0.9761
vn 0.5865 0.0651 -0.8073
vn 0.8642 0.0651 -0.4989
vn 0.9924 0.0651 -0.1043
vn 0.9490 0.0651 0.3084
vn 0.7416 0.0651 0.6677
vn 0.4059 0.0651 0.9116
vn 0.0000 0.0651 0.9979
vn -0.4059 0.0651 0.9116
vn -0.7416 0.0651 0.6677
vn -0.9490 0.0651 0.3084
vn -0.9924 0.0651 -0.1043
vn -0.8642 0.0651 -0.4989
vn 0.0000 1.0000 0.0000
vn -0.5865 0.0651 -0.8073
vn -0.2075 0.0651 -0.9761
vn 0.0000 -1.0000 0.0000
usemtl None
s off
f 106/170/141 107/171/141 109/172/141 108/173/141
f 108/173/142 109/172/142 111/174/142 110/175/142
f 110/175/143 111/174/143 113/176/143 112/177/143
f 112/178/144 113/179/144 115/180/144 114/181/144
f 114/181/145 115/180/145 117/182/145 116/183/145
f 116/183/146 117/182/146 119/184/146 118/185/146
f 118/186/147 119/187/147 121/188/147 120/189/147
f 120/189/148 121/188/148 123/190/148 122/191/148
f 122/191/149 123/190/149 125/192/149 124/193/149
f 124/193/150 125/192/150 127/194/150 126/195/150
f 126/196/151 127/197/151 129/198/151 128/199/151
f 128/199/152 129/198/152 131/200/152 130/201/152
f 130/201/153 131/200/153 133/202/153 132/203/153
f 109/204/154 107/205/154 135/206/154 133/207/154 131/208/154 129/209/154 127/210/154 125/211/154 123/212/154 121/213/154 119/214/154 117/215/154 115/216/154 113/217/154 111/218/154
f 132/203/155 133/202/155 135/219/155 134/220/155
f 134/221/156 135/222/156 107/171/156 106/170/156
f 106/223/157 108/224/157 110/225/157 112/226/157 114/227/157 116/228/157 118/229/157 120/230/157 122/231/157 124/232/157 126/233/157 128/234/157 130/235/157 132/236/157 134/237/157
